  0
SECTION
  2
HEADER
  9
$ACADVER
  1
AC1009
  9
$INSBASE
 10
0.0
 20
0.0
 30
0.0
  9
$EXTMIN
 10
0.0
 20
0.0
 30
0.0
  9
$EXTMAX
 10
0.0
 20
0.0
 30
0.0
  0
ENDSEC
  0
SECTION
  2
TABLES
  0
TABLE
  2
VPORT
 70
1
  0
VPORT
  2
*ACTIVE
 70
0
 10
0.0
 20
0.0
 11
1.0
 21
1.0
 12
-5.0
 22
1.0
 13
0.0
 23
0.0
 14
0.1
 24
0.1
 15
0.1
 25
0.1
 16
0.0
 26
0.0
 36
1.0
 17
0.0
 27
0.0
 37
0.0
 40
10.0
 41
1.0
 42
50.0
 43
0.0
 44
0.0
 50
0.0
 51
0.0
 71
0
 72
100
 73
1
 74
1
 75
0
 76
0
 77
0
 78
0
  0
ENDTAB
  0
TABLE
  2
LTYPE
 70
8
  0
LTYPE
  2
CONTINUOUS
 70
0
  3
Solid line
 72
65
 73
0
 40
0.0
  0
LTYPE
  2
DOT
 70
0
  3
. . . . . . .
 72
65
 73
2
 40
0.25
 49
0.0
 49
-0.25
  0
LTYPE
  2
DASHED
 70
0
  3
__ __ __ __ __
 72
65
 73
2
 40
0.8
 49
0.5
 49
-0.3
  0
LTYPE
  2
DASHDOT
 70
0
  3
__ . __ . __ .
 72
65
 73
4
 40
1.0
 49
0.5
 49
-0.25
 49
0.0
 49
-0.25
  0
LTYPE
  2
DIVIDE
 70
0
  3
____ . . ____ . . 
 72
65
 73
6
 40
1.25
 49
0.5
 49
-0.25
 49
0.0
 49
-0.25
 49
0.0
 49
-0.25
  0
LTYPE
  2
BORDER
 70
0
  3
__ __ . __ __ . 
 72
65
 73
6
 40
1.75
 49
0.5
 49
-0.25
 49
0.5
 49
-0.25
 49
0.0
 49
-0.25
  0
LTYPE
  2
HIDDEN
 70
0
  3
__ __ __ __ __
 72
65
 73
2
 40
0.4
 49
0.25
 49
-0.25
  0
LTYPE
  2
CENTER
 70
0
  3
____ _ ____ _ __
 72
65
 73
4
 40
2.0
 49
1.25
 49
-0.25
 49
0.25
 49
-0.25
  0
ENDTAB
  0
TABLE
  2
LAYER
 70
1
  0
LAYER
  2
PYDXF
 70
64
 62
7
  6
continuous
  0
ENDTAB
  0
TABLE
  2
STYLE
 70
1
  0
STYLE
  2
STANDARD
 70
0
 40
0
 41
1.0
 50
0.0
 71
0
 42
1
 3
ARIAL.TTF
 4

  0
ENDTAB
  0
TABLE
  2
VIEW
 70
1
  0
VIEW
  2
BF_TOPVIEW
 70
0
 40
120.0
 10
0.0
 20
0.0
 41
200.0
 11
0.0
 21
0.0
 31
1.0
 12
0.0
 22
0.0
 32
0.0
 42
50.0
 43
0.0
 44
0.0
 50
0.0
 71
0
  0
ENDTAB
  0
ENDSEC
  0
SECTION
  2
BLOCKS
  0
ENDSEC
  0
SECTION
  2
ENTITIES
  0
3DFACE
  8
0
 10
0.23200799524784088
 20
0.16367951035499573
 30
-0.3333483934402466
 11
0.23200799524784088
 21
0.7636795043945312
 31
-0.3333483934402466
 12
0.4270983338356018
 22
0.7444647550582886
 32
-0.3333483934402466
 13
0.31004413962364197
 23
0.15599361062049866
 33
-0.3333483934402466
  0
3DFACE
  8
0
 10
0.23200799524784088
 20
0.7636795043945312
 30
-0.3333483934402466
 11
0.23200799524784088
 21
0.16367951035499573
 31
-0.3333483934402466
 12
0.15397246181964874
 22
0.1559937298297882
 32
-0.3333483934402466
 13
0.03691917657852173
 23
0.7444650530815125
 33
-0.3333483934402466
  0
3DFACE
  8
0
 10
0.23200799524784088
 20
0.7636795043945312
 30
-0.3333483934402466
 11
0.23200799524784088
 21
0.7636795043945312
 31
-0.17936599254608154
 12
0.4270983040332794
 22
0.7444647550582886
 32
-0.17936599254608154
 13
0.4270983338356018
 23
0.7444647550582886
 33
-0.3333483934402466
  0
3DFACE
  8
0
 10
0.31004413962364197
 20
0.15599361062049866
 30
-0.3333483934402466
 11
0.4270983338356018
 21
0.7444647550582886
 31
-0.3333483934402466
 12
0.614691436290741
 22
0.6875590085983276
 32
-0.3333483934402466
 13
0.38508138060569763
 23
0.13323131203651428
 33
-0.3333483934402466
  0
3DFACE
  8
0
 10
0.0789351761341095
 20
0.13323155045509338
 30
-0.3333483934402466
 11
-0.15067410469055176
 21
0.6875596046447754
 31
-0.3333483934402466
 12
0.03691917657852173
 22
0.7444650530815125
 32
-0.3333483934402466
 13
0.15397246181964874
 23
0.1559937298297882
 33
-0.3333483934402466
  0
3DFACE
  8
0
 10
0.03691917657852173
 20
0.7444650530815125
 30
-0.3333483934402466
 11
0.03691917657852173
 21
0.7444650530815125
 31
-0.17936599254608154
 12
0.23200799524784088
 22
0.7636795043945312
 32
-0.17936599254608154
 13
0.23200799524784088
 23
0.7636795043945312
 33
-0.3333483934402466
  0
3DFACE
  8
0
 10
0.3100441098213196
 20
0.15599361062049866
 30
-0.17936599254608154
 11
0.4270983040332794
 21
0.7444647550582886
 31
-0.17936599254608154
 12
0.23200799524784088
 22
0.7636795043945312
 32
-0.17936599254608154
 13
0.23200799524784088
 23
0.16367951035499573
 33
-0.17936599254608154
  0
3DFACE
  8
0
 10
0.4270983338356018
 20
0.7444647550582886
 30
-0.3333483934402466
 11
0.4270983040332794
 21
0.7444647550582886
 31
-0.17936599254608154
 12
0.614691436290741
 22
0.6875590085983276
 32
-0.17936599254608154
 13
0.614691436290741
 23
0.6875590085983276
 33
-0.3333483934402466
  0
3DFACE
  8
0
 10
0.38508138060569763
 20
0.13323131203651428
 30
-0.3333483934402466
 11
0.614691436290741
 21
0.6875590085983276
 31
-0.3333483934402466
 12
0.7875782251358032
 22
0.5951490998268127
 32
-0.3333483934402466
 13
0.45423611998558044
 23
0.09626734256744385
 33
-0.3333483934402466
  0
3DFACE
  8
0
 10
0.009780347347259521
 20
0.09626767039299011
 30
-0.3333483934402466
 11
-0.32356107234954834
 21
0.5951498746871948
 31
-0.3333483934402466
 12
-0.15067410469055176
 22
0.6875596046447754
 32
-0.3333483934402466
 13
0.0789351761341095
 23
0.13323155045509338
 33
-0.3333483934402466
  0
3DFACE
  8
0
 10
-0.15067410469055176
 20
0.6875596046447754
 30
-0.3333483934402466
 11
-0.15067410469055176
 21
0.6875596046447754
 31
-0.17936599254608154
 12
0.03691917657852173
 22
0.7444650530815125
 32
-0.17936599254608154
 13
0.03691917657852173
 23
0.7444650530815125
 33
-0.3333483934402466
  0
3DFACE
  8
0
 10
0.23200799524784088
 20
0.16367951035499573
 30
-0.17936599254608154
 11
0.23200799524784088
 21
0.7636795043945312
 31
-0.17936599254608154
 12
0.03691917657852173
 22
0.7444650530815125
 32
-0.17936599254608154
 13
0.15397246181964874
 23
0.1559937298297882
 33
-0.17936599254608154
  0
3DFACE
  8
0
 10
0.38508135080337524
 20
0.13323131203651428
 30
-0.17936599254608154
 11
0.614691436290741
 21
0.6875590085983276
 31
-0.17936599254608154
 12
0.4270983040332794
 22
0.7444647550582886
 32
-0.17936599254608154
 13
0.3100441098213196
 23
0.15599361062049866
 33
-0.17936599254608154
  0
3DFACE
  8
0
 10
0.614691436290741
 20
0.6875590085983276
 30
-0.3333483934402466
 11
0.614691436290741
 21
0.6875590085983276
 31
-0.17936599254608154
 12
0.7875782251358032
 22
0.5951490998268127
 32
-0.17936599254608154
 13
0.7875782251358032
 23
0.5951490998268127
 33
-0.3333483934402466
  0
3DFACE
  8
0
 10
0.45423611998558044
 20
0.09626734256744385
 30
-0.3333483934402466
 11
0.7875782251358032
 21
0.5951490998268127
 31
-0.3333483934402466
 12
0.9391147494316101
 22
0.47078627347946167
 32
-0.3333483934402466
 13
0.5148507356643677
 23
0.04652222990989685
 33
-0.3333483934402466
  0
3DFACE
  8
0
 10
-0.05083435773849487
 20
0.0465225875377655
 30
-0.3333483934402466
 11
-0.4750978946685791
 21
0.4707871675491333
 31
-0.3333483934402466
 12
-0.32356107234954834
 22
0.5951498746871948
 32
-0.3333483934402466
 13
0.009780347347259521
 23
0.09626767039299011
 33
-0.3333483934402466
  0
3DFACE
  8
0
 10
-0.32356107234954834
 20
0.5951498746871948
 30
-0.3333483934402466
 11
-0.3235611319541931
 21
0.5951498746871948
 31
-0.17936599254608154
 12
-0.15067410469055176
 22
0.6875596046447754
 32
-0.17936599254608154
 13
-0.15067410469055176
 23
0.6875596046447754
 33
-0.3333483934402466
  0
3DFACE
  8
0
 10
0.15397246181964874
 20
0.1559937298297882
 30
-0.17936599254608154
 11
0.03691917657852173
 21
0.7444650530815125
 31
-0.17936599254608154
 12
-0.15067410469055176
 22
0.6875596046447754
 32
-0.17936599254608154
 13
0.07893514633178711
 23
0.13323155045509338
 33
-0.17936599254608154
  0
3DFACE
  8
0
 10
0.45423609018325806
 20
0.09626734256744385
 30
-0.17936599254608154
 11
0.7875782251358032
 21
0.5951490998268127
 31
-0.17936599254608154
 12
0.614691436290741
 22
0.6875590085983276
 32
-0.17936599254608154
 13
0.38508135080337524
 23
0.13323131203651428
 33
-0.17936599254608154
  0
3DFACE
  8
0
 10
0.7875782251358032
 20
0.5951490998268127
 30
-0.3333483934402466
 11
0.7875782251358032
 21
0.5951490998268127
 31
-0.17936599254608154
 12
0.9391147494316101
 22
0.47078627347946167
 32
-0.17936599254608154
 13
0.9391147494316101
 23
0.47078627347946167
 33
-0.3333483934402466
  0
3DFACE
  8
0
 10
0.5148507356643677
 20
0.04652222990989685
 30
-0.3333483934402466
 11
0.9391147494316101
 21
0.47078627347946167
 31
-0.3333483934402466
 12
1.063477635383606
 22
0.31924968957901
 32
-0.3333483934402466
 13
0.5645958185195923
 23
-0.014092430472373962
 33
-0.3333483934402466
  0
3DFACE
  8
0
 10
-0.10057955980300903
 20
-0.01409199833869934
 30
-0.3333483934402466
 11
-0.5994609594345093
 21
0.31925076246261597
 31
-0.3333483934402466
 12
-0.4750978946685791
 22
0.4707871675491333
 32
-0.3333483934402466
 13
-0.05083435773849487
 23
0.0465225875377655
 33
-0.3333483934402466
  0
3DFACE
  8
0
 10
-0.4750978946685791
 20
0.4707871675491333
 30
-0.3333483934402466
 11
-0.4750978946685791
 21
0.4707871675491333
 31
-0.17936599254608154
 12
-0.3235611319541931
 22
0.5951498746871948
 32
-0.17936599254608154
 13
-0.32356107234954834
 23
0.5951498746871948
 33
-0.3333483934402466
  0
3DFACE
  8
0
 10
0.07893514633178711
 20
0.13323155045509338
 30
-0.17936599254608154
 11
-0.15067410469055176
 21
0.6875596046447754
 31
-0.17936599254608154
 12
-0.3235611319541931
 22
0.5951498746871948
 32
-0.17936599254608154
 13
0.009780347347259521
 23
0.09626767039299011
 33
-0.17936599254608154
  0
3DFACE
  8
0
 10
0.5148507356643677
 20
0.04652222990989685
 30
-0.17936599254608154
 11
0.9391147494316101
 21
0.47078627347946167
 31
-0.17936599254608154
 12
0.7875782251358032
 22
0.5951490998268127
 32
-0.17936599254608154
 13
0.45423609018325806
 23
0.09626734256744385
 33
-0.17936599254608154
  0
3DFACE
  8
0
 10
0.9391147494316101
 20
0.47078627347946167
 30
-0.3333483934402466
 11
0.9391147494316101
 21
0.47078627347946167
 31
-0.17936599254608154
 12
1.063477635383606
 22
0.31924968957901
 32
-0.17936599254608154
 13
1.063477635383606
 23
0.31924968957901
 33
-0.3333483934402466
  0
3DFACE
  8
0
 10
0.5645958185195923
 20
-0.014092430472373962
 30
-0.3333483934402466
 11
1.063477635383606
 21
0.31924968957901
 31
-0.3333483934402466
 12
1.155887484550476
 22
0.14636293053627014
 32
-0.3333483934402466
 13
0.6015597581863403
 23
-0.08324714004993439
 33
-0.3333483934402466
  0
3DFACE
  8
0
 10
-0.13754361867904663
 20
-0.08324670791625977
 30
-0.3333483934402466
 11
-0.6918711066246033
 21
0.1463639736175537
 31
-0.3333483934402466
 12
-0.5994609594345093
 22
0.31925076246261597
 32
-0.3333483934402466
 13
-0.10057955980300903
 23
-0.01409199833869934
 33
-0.3333483934402466
  0
3DFACE
  8
0
 10
-0.5994609594345093
 20
0.31925076246261597
 30
-0.3333483934402466
 11
-0.5994609594345093
 21
0.31925076246261597
 31
-0.17936599254608154
 12
-0.4750978946685791
 22
0.4707871675491333
 32
-0.17936599254608154
 13
-0.4750978946685791
 23
0.4707871675491333
 33
-0.3333483934402466
  0
3DFACE
  8
0
 10
0.009780347347259521
 20
0.09626767039299011
 30
-0.17936599254608154
 11
-0.3235611319541931
 21
0.5951498746871948
 31
-0.17936599254608154
 12
-0.4750978946685791
 22
0.4707871675491333
 32
-0.17936599254608154
 13
-0.05083438754081726
 23
0.0465225875377655
 33
-0.17936599254608154
  0
3DFACE
  8
0
 10
0.5645958185195923
 20
-0.014092415571212769
 30
-0.17936599254608154
 11
1.063477635383606
 21
0.31924968957901
 31
-0.17936599254608154
 12
0.9391147494316101
 22
0.47078627347946167
 32
-0.17936599254608154
 13
0.5148507356643677
 23
0.04652222990989685
 33
-0.17936599254608154
  0
3DFACE
  8
0
 10
1.063477635383606
 20
0.31924968957901
 30
-0.3333483934402466
 11
1.063477635383606
 21
0.31924968957901
 31
-0.17936599254608154
 12
1.155887484550476
 22
0.14636293053627014
 32
-0.17936599254608154
 13
1.155887484550476
 23
0.14636293053627014
 33
-0.3333483934402466
  0
3DFACE
  8
0
 10
0.6015597581863403
 20
-0.08324714004993439
 30
-0.3333483934402466
 11
1.155887484550476
 21
0.14636293053627014
 31
-0.3333483934402466
 12
1.212793231010437
 22
-0.04123014211654663
 32
-0.3333483934402466
 13
0.6243220567703247
 23
-0.15828435122966766
 33
-0.3333483934402466
  0
3DFACE
  8
0
 10
-0.16030603647232056
 20
-0.15828394889831543
 30
-0.3333483934402466
 11
-0.7487770915031433
 21
-0.04122914373874664
 31
-0.3333483934402466
 12
-0.6918711066246033
 22
0.1463639736175537
 32
-0.3333483934402466
 13
-0.13754361867904663
 23
-0.08324670791625977
 33
-0.3333483934402466
  0
3DFACE
  8
0
 10
-0.6918711066246033
 20
0.1463639736175537
 30
-0.3333483934402466
 11
-0.6918711066246033
 21
0.1463639736175537
 31
-0.17936599254608154
 12
-0.5994609594345093
 22
0.31925076246261597
 32
-0.17936599254608154
 13
-0.5994609594345093
 23
0.31925076246261597
 33
-0.3333483934402466
  0
3DFACE
  8
0
 10
-0.05083438754081726
 20
0.0465225875377655
 30
-0.17936599254608154
 11
-0.4750978946685791
 21
0.4707871675491333
 31
-0.17936599254608154
 12
-0.5994609594345093
 22
0.31925076246261597
 32
-0.17936599254608154
 13
-0.10057958960533142
 23
-0.014091983437538147
 33
-0.17936599254608154
  0
3DFACE
  8
0
 10
0.6015597581863403
 20
-0.0832471251487732
 30
-0.17936599254608154
 11
1.155887484550476
 21
0.14636293053627014
 31
-0.17936599254608154
 12
1.063477635383606
 22
0.31924968957901
 32
-0.17936599254608154
 13
0.5645958185195923
 23
-0.014092415571212769
 33
-0.17936599254608154
  0
3DFACE
  8
0
 10
1.155887484550476
 20
0.14636293053627014
 30
-0.3333483934402466
 11
1.155887484550476
 21
0.14636293053627014
 31
-0.17936599254608154
 12
1.212793231010437
 22
-0.04123014211654663
 32
-0.17936599254608154
 13
1.212793231010437
 23
-0.04123014211654663
 33
-0.3333483934402466
  0
3DFACE
  8
0
 10
0.6243220567703247
 20
-0.15828435122966766
 30
-0.3333483934402466
 11
1.212793231010437
 21
-0.04123014211654663
 31
-0.3333483934402466
 12
1.2320079803466797
 22
-0.23632042109966278
 32
-0.3333483934402466
 13
0.6320079565048218
 23
-0.23632046580314636
 33
-0.3333483934402466
  0
3DFACE
  8
0
 10
-0.1679919958114624
 20
-0.2363201081752777
 30
-0.3333483934402466
 11
-0.7679920196533203
 21
-0.23631952702999115
 31
-0.3333483934402466
 12
-0.7487770915031433
 22
-0.04122914373874664
 32
-0.3333483934402466
 13
-0.16030603647232056
 23
-0.15828394889831543
 33
-0.3333483934402466
  0
3DFACE
  8
0
 10
-0.7487770915031433
 20
-0.04122914373874664
 30
-0.3333483934402466
 11
-0.7487770915031433
 21
-0.04122914373874664
 31
-0.17936599254608154
 12
-0.6918711066246033
 22
0.1463639736175537
 32
-0.17936599254608154
 13
-0.6918711066246033
 23
0.1463639736175537
 33
-0.3333483934402466
  0
3DFACE
  8
0
 10
-0.10057958960533142
 20
-0.014091983437538147
 30
-0.17936599254608154
 11
-0.5994609594345093
 21
0.31925076246261597
 31
-0.17936599254608154
 12
-0.6918711066246033
 22
0.1463639736175537
 32
-0.17936599254608154
 13
-0.13754361867904663
 23
-0.08324670791625977
 33
-0.17936599254608154
  0
3DFACE
  8
0
 10
0.6243220567703247
 20
-0.15828435122966766
 30
-0.17936599254608154
 11
1.212793231010437
 21
-0.04123014211654663
 31
-0.17936599254608154
 12
1.155887484550476
 22
0.14636293053627014
 32
-0.17936599254608154
 13
0.6015597581863403
 23
-0.0832471251487732
 33
-0.17936599254608154
  0
3DFACE
  8
0
 10
1.212793231010437
 20
-0.04123014211654663
 30
-0.3333483934402466
 11
1.212793231010437
 21
-0.04123014211654663
 31
-0.17936599254608154
 12
1.2320079803466797
 22
-0.23632042109966278
 32
-0.17936599254608154
 13
1.2320079803466797
 23
-0.23632042109966278
 33
-0.3333483934402466
  0
3DFACE
  8
0
 10
0.6320079565048218
 20
-0.23632046580314636
 30
-0.3333483934402466
 11
1.2320079803466797
 21
-0.23632042109966278
 31
-0.3333483934402466
 12
1.2127933502197266
 22
-0.4314107298851013
 32
-0.3333483934402466
 13
0.6243221163749695
 23
-0.31435656547546387
 33
-0.3333483934402466
  0
3DFACE
  8
0
 10
-0.1603061556816101
 20
-0.31435626745224
 30
-0.3333483934402466
 11
-0.748777449131012
 21
-0.43140995502471924
 31
-0.3333483934402466
 12
-0.7679920196533203
 22
-0.23631952702999115
 32
-0.3333483934402466
 13
-0.1679919958114624
 23
-0.2363201081752777
 33
-0.3333483934402466
  0
3DFACE
  8
0
 10
-0.7679920196533203
 20
-0.23631952702999115
 30
-0.3333483934402466
 11
-0.7679920196533203
 21
-0.23631952702999115
 31
-0.17936599254608154
 12
-0.7487770915031433
 22
-0.04122914373874664
 32
-0.17936599254608154
 13
-0.7487770915031433
 23
-0.04122914373874664
 33
-0.3333483934402466
  0
3DFACE
  8
0
 10
-0.13754361867904663
 20
-0.08324670791625977
 30
-0.17936599254608154
 11
-0.6918711066246033
 21
0.1463639736175537
 31
-0.17936599254608154
 12
-0.7487770915031433
 22
-0.04122914373874664
 32
-0.17936599254608154
 13
-0.16030603647232056
 23
-0.15828394889831543
 33
-0.17936599254608154
  0
3DFACE
  8
0
 10
0.6320079565048218
 20
-0.23632046580314636
 30
-0.17936599254608154
 11
1.2320079803466797
 21
-0.23632042109966278
 31
-0.17936599254608154
 12
1.212793231010437
 22
-0.04123014211654663
 32
-0.17936599254608154
 13
0.6243220567703247
 23
-0.15828435122966766
 33
-0.17936599254608154
  0
3DFACE
  8
0
 10
1.2320079803466797
 20
-0.23632042109966278
 30
-0.3333483934402466
 11
1.2320079803466797
 21
-0.23632042109966278
 31
-0.17936599254608154
 12
1.2127933502197266
 22
-0.43141067028045654
 32
-0.17936599254608154
 13
1.2127933502197266
 23
-0.4314107298851013
 33
-0.3333483934402466
  0
3DFACE
  8
0
 10
0.6243221163749695
 20
-0.31435656547546387
 30
-0.3333483934402466
 11
1.2127933502197266
 21
-0.4314107298851013
 31
-0.3333483934402466
 12
1.1558876037597656
 22
-0.6190037727355957
 32
-0.3333483934402466
 13
0.6015598177909851
 23
-0.38939380645751953
 33
-0.3333483934402466
  0
3DFACE
  8
0
 10
-0.13754397630691528
 20
-0.38939356803894043
 30
-0.3333483934402466
 11
-0.6918718814849854
 21
-0.619003176689148
 31
-0.3333483934402466
 12
-0.748777449131012
 22
-0.43140995502471924
 32
-0.3333483934402466
 13
-0.1603061556816101
 23
-0.31435626745224
 33
-0.3333483934402466
  0
3DFACE
  8
0
 10
-0.748777449131012
 20
-0.43140995502471924
 30
-0.3333483934402466
 11
-0.748777449131012
 21
-0.43140995502471924
 31
-0.17936599254608154
 12
-0.7679920196533203
 22
-0.23631952702999115
 32
-0.17936599254608154
 13
-0.7679920196533203
 23
-0.23631952702999115
 33
-0.3333483934402466
  0
3DFACE
  8
0
 10
-0.16030603647232056
 20
-0.15828394889831543
 30
-0.17936599254608154
 11
-0.7487770915031433
 21
-0.04122914373874664
 31
-0.17936599254608154
 12
-0.7679920196533203
 22
-0.23631952702999115
 32
-0.17936599254608154
 13
-0.1679919958114624
 23
-0.2363201081752777
 33
-0.17936599254608154
  0
3DFACE
  8
0
 10
0.6243221163749695
 20
-0.31435656547546387
 30
-0.17936599254608154
 11
1.2127933502197266
 21
-0.43141067028045654
 31
-0.17936599254608154
 12
1.2320079803466797
 22
-0.23632042109966278
 32
-0.17936599254608154
 13
0.6320079565048218
 23
-0.23632046580314636
 33
-0.17936599254608154
  0
3DFACE
  8
0
 10
1.2127933502197266
 20
-0.4314107298851013
 30
-0.3333483934402466
 11
1.2127933502197266
 21
-0.43141067028045654
 31
-0.17936599254608154
 12
1.1558876037597656
 22
-0.6190037727355957
 32
-0.17936599254608154
 13
1.1558876037597656
 23
-0.6190037727355957
 33
-0.3333483934402466
  0
3DFACE
  8
0
 10
0.6015598177909851
 20
-0.38939380645751953
 30
-0.3333483934402466
 11
1.1558876037597656
 21
-0.6190037727355957
 31
-0.3333483934402466
 12
1.063477635383606
 22
-0.7918906807899475
 32
-0.3333483934402466
 13
0.5645958185195923
 23
-0.4585486054420471
 33
-0.3333483934402466
  0
3DFACE
  8
0
 10
-0.10058000683784485
 20
-0.458548367023468
 30
-0.3333483934402466
 11
-0.5994620323181152
 21
-0.7918901443481445
 31
-0.3333483934402466
 12
-0.6918718814849854
 22
-0.619003176689148
 32
-0.3333483934402466
 13
-0.13754397630691528
 23
-0.38939356803894043
 33
-0.3333483934402466
  0
3DFACE
  8
0
 10
-0.6918718814849854
 20
-0.619003176689148
 30
-0.3333483934402466
 11
-0.6918718814849854
 21
-0.619003176689148
 31
-0.17936599254608154
 12
-0.748777449131012
 22
-0.43140995502471924
 32
-0.17936599254608154
 13
-0.748777449131012
 23
-0.43140995502471924
 33
-0.3333483934402466
  0
3DFACE
  8
0
 10
-0.1679919958114624
 20
-0.2363201081752777
 30
-0.17936599254608154
 11
-0.7679920196533203
 21
-0.23631952702999115
 31
-0.17936599254608154
 12
-0.748777449131012
 22
-0.43140995502471924
 32
-0.17936599254608154
 13
-0.1603061556816101
 23
-0.31435626745224
 33
-0.17936599254608154
  0
3DFACE
  8
0
 10
0.6015598177909851
 20
-0.38939380645751953
 30
-0.17936599254608154
 11
1.1558876037597656
 21
-0.6190037727355957
 31
-0.17936599254608154
 12
1.2127933502197266
 22
-0.43141067028045654
 32
-0.17936599254608154
 13
0.6243221163749695
 23
-0.31435656547546387
 33
-0.17936599254608154
  0
3DFACE
  8
0
 10
1.1558876037597656
 20
-0.6190037727355957
 30
-0.3333483934402466
 11
1.1558876037597656
 21
-0.6190037727355957
 31
-0.17936599254608154
 12
1.063477635383606
 22
-0.7918906807899475
 32
-0.17936599254608154
 13
1.063477635383606
 23
-0.7918906807899475
 33
-0.3333483934402466
  0
3DFACE
  8
0
 10
0.5645958185195923
 20
-0.4585486054420471
 30
-0.3333483934402466
 11
1.063477635383606
 21
-0.7918906807899475
 31
-0.3333483934402466
 12
0.9391147494316101
 22
-0.9434272646903992
 32
-0.3333483934402466
 13
0.5148507356643677
 23
-0.5191632509231567
 33
-0.3333483934402466
  0
3DFACE
  8
0
 10
-0.05083489418029785
 20
-0.5191630125045776
 30
-0.3333483934402466
 11
-0.47509920597076416
 21
-0.9434268474578857
 31
-0.3333483934402466
 12
-0.5994620323181152
 22
-0.7918901443481445
 32
-0.3333483934402466
 13
-0.10058000683784485
 23
-0.458548367023468
 33
-0.3333483934402466
  0
3DFACE
  8
0
 10
-0.5994620323181152
 20
-0.7918901443481445
 30
-0.3333483934402466
 11
-0.5994620323181152
 21
-0.7918901443481445
 31
-0.17936599254608154
 12
-0.6918718814849854
 22
-0.619003176689148
 32
-0.17936599254608154
 13
-0.6918718814849854
 23
-0.619003176689148
 33
-0.3333483934402466
  0
3DFACE
  8
0
 10
-0.1603061556816101
 20
-0.31435626745224
 30
-0.17936599254608154
 11
-0.748777449131012
 21
-0.43140995502471924
 31
-0.17936599254608154
 12
-0.6918718814849854
 22
-0.619003176689148
 32
-0.17936599254608154
 13
-0.13754397630691528
 23
-0.38939356803894043
 33
-0.17936599254608154
  0
3DFACE
  8
0
 10
0.5645958185195923
 20
-0.45854854583740234
 30
-0.17936599254608154
 11
1.063477635383606
 21
-0.7918906807899475
 31
-0.17936599254608154
 12
1.1558876037597656
 22
-0.6190037727355957
 32
-0.17936599254608154
 13
0.6015598177909851
 23
-0.38939380645751953
 33
-0.17936599254608154
  0
3DFACE
  8
0
 10
1.063477635383606
 20
-0.7918906807899475
 30
-0.3333483934402466
 11
1.063477635383606
 21
-0.7918906807899475
 31
-0.17936599254608154
 12
0.9391147494316101
 22
-0.9434272646903992
 32
-0.17936599254608154
 13
0.9391147494316101
 23
-0.9434272646903992
 33
-0.3333483934402466
  0
3DFACE
  8
0
 10
0.5148507356643677
 20
-0.5191632509231567
 30
-0.3333483934402466
 11
0.9391147494316101
 21
-0.9434272646903992
 31
-0.3333483934402466
 12
0.7875781655311584
 22
-1.067790150642395
 32
-0.3333483934402466
 13
0.45423609018325806
 23
-0.5689083337783813
 33
-0.3333483934402466
  0
3DFACE
  8
0
 10
0.009779706597328186
 20
-0.5689082145690918
 30
-0.3333483934402466
 11
-0.32356274127960205
 21
-1.0677897930145264
 31
-0.3333483934402466
 12
-0.47509920597076416
 22
-0.9434268474578857
 32
-0.3333483934402466
 13
-0.05083489418029785
 23
-0.5191630125045776
 33
-0.3333483934402466
  0
3DFACE
  8
0
 10
-0.47509920597076416
 20
-0.9434268474578857
 30
-0.3333483934402466
 11
-0.47509926557540894
 21
-0.9434268474578857
 31
-0.17936599254608154
 12
-0.5994620323181152
 22
-0.7918901443481445
 32
-0.17936599254608154
 13
-0.5994620323181152
 23
-0.7918901443481445
 33
-0.3333483934402466
  0
3DFACE
  8
0
 10
-0.13754397630691528
 20
-0.38939356803894043
 30
-0.17936599254608154
 11
-0.6918718814849854
 21
-0.619003176689148
 31
-0.17936599254608154
 12
-0.5994620323181152
 22
-0.7918901443481445
 32
-0.17936599254608154
 13
-0.10058003664016724
 23
-0.458548367023468
 33
-0.17936599254608154
  0
3DFACE
  8
0
 10
0.5148507356643677
 20
-0.5191632509231567
 30
-0.17936599254608154
 11
0.9391147494316101
 21
-0.9434272646903992
 31
-0.17936599254608154
 12
1.063477635383606
 22
-0.7918906807899475
 32
-0.17936599254608154
 13
0.5645958185195923
 23
-0.45854854583740234
 33
-0.17936599254608154
  0
3DFACE
  8
0
 10
0.9391147494316101
 20
-0.9434272646903992
 30
-0.3333483934402466
 11
0.9391147494316101
 21
-0.9434272646903992
 31
-0.17936599254608154
 12
0.7875781655311584
 22
-1.067790150642395
 32
-0.17936599254608154
 13
0.7875781655311584
 23
-1.067790150642395
 33
-0.3333483934402466
  0
3DFACE
  8
0
 10
0.45423609018325806
 20
-0.5689083337783813
 30
-0.3333483934402466
 11
0.7875781655311584
 21
-1.067790150642395
 31
-0.3333483934402466
 12
0.6146912574768066
 22
-1.1602001190185547
 32
-0.3333483934402466
 13
0.38508132100105286
 23
-0.605872392654419
 33
-0.3333483934402466
  0
3DFACE
  8
0
 10
0.078934445977211
 20
-0.6058722734451294
 30
-0.3333483934402466
 11
-0.15067589282989502
 21
-1.1601998805999756
 31
-0.3333483934402466
 12
-0.32356274127960205
 22
-1.0677897930145264
 32
-0.3333483934402466
 13
0.009779706597328186
 23
-0.5689082145690918
 33
-0.3333483934402466
  0
3DFACE
  8
0
 10
-0.32356274127960205
 20
-1.0677897930145264
 30
-0.3333483934402466
 11
-0.32356274127960205
 21
-1.0677897930145264
 31
-0.17936599254608154
 12
-0.47509926557540894
 22
-0.9434268474578857
 32
-0.17936599254608154
 13
-0.47509920597076416
 23
-0.9434268474578857
 33
-0.3333483934402466
  0
3DFACE
  8
0
 10
-0.10058003664016724
 20
-0.458548367023468
 30
-0.17936599254608154
 11
-0.5994620323181152
 21
-0.7918901443481445
 31
-0.17936599254608154
 12
-0.47509926557540894
 22
-0.9434268474578857
 32
-0.17936599254608154
 13
-0.05083489418029785
 23
-0.5191630125045776
 33
-0.17936599254608154
  0
3DFACE
  8
0
 10
0.45423606038093567
 20
-0.5689083337783813
 30
-0.17936599254608154
 11
0.7875781655311584
 21
-1.067790150642395
 31
-0.17936599254608154
 12
0.9391147494316101
 22
-0.9434272646903992
 32
-0.17936599254608154
 13
0.5148507356643677
 23
-0.5191632509231567
 33
-0.17936599254608154
  0
3DFACE
  8
0
 10
0.7875781655311584
 20
-1.067790150642395
 30
-0.3333483934402466
 11
0.7875781655311584
 21
-1.067790150642395
 31
-0.17936599254608154
 12
0.6146912574768066
 22
-1.1602001190185547
 32
-0.17936599254608154
 13
0.6146912574768066
 23
-1.1602001190185547
 33
-0.3333483934402466
  0
3DFACE
  8
0
 10
0.38508132100105286
 20
-0.605872392654419
 30
-0.3333483934402466
 11
0.6146912574768066
 21
-1.1602001190185547
 31
-0.3333483934402466
 12
0.4270980954170227
 22
-1.2171058654785156
 32
-0.3333483934402466
 13
0.3100440502166748
 23
-0.6286346316337585
 33
-0.3333483934402466
  0
3DFACE
  8
0
 10
0.15397170186042786
 20
-0.6286345720291138
 30
-0.3333483934402466
 11
0.036917269229888916
 21
-1.2171056270599365
 31
-0.3333483934402466
 12
-0.15067589282989502
 22
-1.1601998805999756
 32
-0.3333483934402466
 13
0.078934445977211
 23
-0.6058722734451294
 33
-0.3333483934402466
  0
3DFACE
  8
0
 10
-0.15067589282989502
 20
-1.1601998805999756
 30
-0.3333483934402466
 11
-0.15067589282989502
 21
-1.1601998805999756
 31
-0.17936599254608154
 12
-0.32356274127960205
 22
-1.0677897930145264
 32
-0.17936599254608154
 13
-0.32356274127960205
 23
-1.0677897930145264
 33
-0.3333483934402466
  0
3DFACE
  8
0
 10
-0.05083489418029785
 20
-0.5191630125045776
 30
-0.17936599254608154
 11
-0.47509926557540894
 21
-0.9434268474578857
 31
-0.17936599254608154
 12
-0.32356274127960205
 22
-1.0677897930145264
 32
-0.17936599254608154
 13
0.009779706597328186
 23
-0.5689082145690918
 33
-0.17936599254608154
  0
3DFACE
  8
0
 10
0.38508129119873047
 20
-0.605872392654419
 30
-0.17936599254608154
 11
0.6146912574768066
 21
-1.1602001190185547
 31
-0.17936599254608154
 12
0.7875781655311584
 22
-1.067790150642395
 32
-0.17936599254608154
 13
0.45423606038093567
 23
-0.5689083337783813
 33
-0.17936599254608154
  0
3DFACE
  8
0
 10
0.6146912574768066
 20
-1.1602001190185547
 30
-0.3333483934402466
 11
0.6146912574768066
 21
-1.1602001190185547
 31
-0.17936599254608154
 12
0.4270980656147003
 22
-1.2171058654785156
 32
-0.17936599254608154
 13
0.4270980954170227
 23
-1.2171058654785156
 33
-0.3333483934402466
  0
3DFACE
  8
0
 10
0.3100440502166748
 20
-0.6286346316337585
 30
-0.3333483934402466
 11
0.4270980954170227
 21
-1.2171058654785156
 31
-0.3333483934402466
 12
0.23200766742229462
 22
-1.2363204956054688
 32
-0.3333483934402466
 13
0.23200786113739014
 23
-0.6363204717636108
 33
-0.3333483934402466
  0
3DFACE
  8
0
 10
0.23200786113739014
 20
-0.6363204717636108
 30
-0.3333483934402466
 11
0.23200766742229462
 21
-1.2363204956054688
 31
-0.3333483934402466
 12
0.036917269229888916
 22
-1.2171056270599365
 32
-0.3333483934402466
 13
0.15397170186042786
 23
-0.6286345720291138
 33
-0.3333483934402466
  0
3DFACE
  8
0
 10
0.036917269229888916
 20
-1.2171056270599365
 30
-0.3333483934402466
 11
0.036917269229888916
 21
-1.2171056270599365
 31
-0.17936599254608154
 12
-0.15067589282989502
 22
-1.1601998805999756
 32
-0.17936599254608154
 13
-0.15067589282989502
 23
-1.1601998805999756
 33
-0.3333483934402466
  0
3DFACE
  8
0
 10
0.009779706597328186
 20
-0.5689082145690918
 30
-0.17936599254608154
 11
-0.32356274127960205
 21
-1.0677897930145264
 31
-0.17936599254608154
 12
-0.15067589282989502
 22
-1.1601998805999756
 32
-0.17936599254608154
 13
0.0789344310760498
 23
-0.6058722734451294
 33
-0.17936599254608154
  0
3DFACE
  8
0
 10
0.3100440204143524
 20
-0.6286346316337585
 30
-0.17936599254608154
 11
0.4270980656147003
 21
-1.2171058654785156
 31
-0.17936599254608154
 12
0.6146912574768066
 22
-1.1602001190185547
 32
-0.17936599254608154
 13
0.38508129119873047
 23
-0.605872392654419
 33
-0.17936599254608154
  0
3DFACE
  8
0
 10
0.4270980954170227
 20
-1.2171058654785156
 30
-0.3333483934402466
 11
0.4270980656147003
 21
-1.2171058654785156
 31
-0.17936599254608154
 12
0.23200766742229462
 22
-1.2363204956054688
 32
-0.17936599254608154
 13
0.23200766742229462
 23
-1.2363204956054688
 33
-0.3333483934402466
  0
3DFACE
  8
0
 10
0.23200766742229462
 20
-1.2363204956054688
 30
-0.3333483934402466
 11
0.23200766742229462
 21
-1.2363204956054688
 31
-0.17936599254608154
 12
0.036917269229888916
 22
-1.2171056270599365
 32
-0.17936599254608154
 13
0.036917269229888916
 23
-1.2171056270599365
 33
-0.3333483934402466
  0
3DFACE
  8
0
 10
0.0789344310760498
 20
-0.6058722734451294
 30
-0.17936599254608154
 11
-0.15067589282989502
 21
-1.1601998805999756
 31
-0.17936599254608154
 12
0.036917269229888916
 22
-1.2171056270599365
 32
-0.17936599254608154
 13
0.15397170186042786
 23
-0.6286345720291138
 33
-0.17936599254608154
  0
3DFACE
  8
0
 10
0.23200786113739014
 20
-0.6363204717636108
 30
-0.17936599254608154
 11
0.23200766742229462
 21
-1.2363204956054688
 31
-0.17936599254608154
 12
0.4270980656147003
 22
-1.2171058654785156
 32
-0.17936599254608154
 13
0.3100440204143524
 23
-0.6286346316337585
 33
-0.17936599254608154
  0
3DFACE
  8
0
 10
0.15397170186042786
 20
-0.6286345720291138
 30
-0.17936599254608154
 11
0.036917269229888916
 21
-1.2171056270599365
 31
-0.17936599254608154
 12
0.23200766742229462
 22
-1.2363204956054688
 32
-0.17936599254608154
 13
0.23200786113739014
 23
-0.6363204717636108
 33
-0.17936599254608154
  0
3DFACE
  8
0
 10
0.23200799524784088
 20
0.16367951035499573
 30
-0.3333483934402466
 11
0.31004413962364197
 21
0.15599361062049866
 31
-0.3333483934402466
 12
0.3100441098213196
 22
0.15599361062049866
 32
-0.17936599254608154
 13
0.23200799524784088
 23
0.16367951035499573
 33
-0.17936599254608154
  0
3DFACE
  8
0
 10
0.15397246181964874
 20
0.1559937298297882
 30
-0.3333483934402466
 11
0.23200799524784088
 21
0.16367951035499573
 31
-0.3333483934402466
 12
0.23200799524784088
 22
0.16367951035499573
 32
-0.17936599254608154
 13
0.15397246181964874
 23
0.1559937298297882
 33
-0.17936599254608154
  0
3DFACE
  8
0
 10
0.31004413962364197
 20
0.15599361062049866
 30
-0.3333483934402466
 11
0.38508138060569763
 21
0.13323131203651428
 31
-0.3333483934402466
 12
0.38508135080337524
 22
0.13323131203651428
 32
-0.17936599254608154
 13
0.3100441098213196
 23
0.15599361062049866
 33
-0.17936599254608154
  0
3DFACE
  8
0
 10
0.0789351761341095
 20
0.13323155045509338
 30
-0.3333483934402466
 11
0.15397246181964874
 21
0.1559937298297882
 31
-0.3333483934402466
 12
0.15397246181964874
 22
0.1559937298297882
 32
-0.17936599254608154
 13
0.07893514633178711
 23
0.13323155045509338
 33
-0.17936599254608154
  0
3DFACE
  8
0
 10
0.38508138060569763
 20
0.13323131203651428
 30
-0.3333483934402466
 11
0.45423611998558044
 21
0.09626734256744385
 31
-0.3333483934402466
 12
0.45423609018325806
 22
0.09626734256744385
 32
-0.17936599254608154
 13
0.38508135080337524
 23
0.13323131203651428
 33
-0.17936599254608154
  0
3DFACE
  8
0
 10
0.009780347347259521
 20
0.09626767039299011
 30
-0.3333483934402466
 11
0.0789351761341095
 21
0.13323155045509338
 31
-0.3333483934402466
 12
0.07893514633178711
 22
0.13323155045509338
 32
-0.17936599254608154
 13
0.009780347347259521
 23
0.09626767039299011
 33
-0.17936599254608154
  0
3DFACE
  8
0
 10
0.45423611998558044
 20
0.09626734256744385
 30
-0.3333483934402466
 11
0.5148507356643677
 21
0.04652222990989685
 31
-0.3333483934402466
 12
0.5148507356643677
 22
0.04652222990989685
 32
-0.17936599254608154
 13
0.45423609018325806
 23
0.09626734256744385
 33
-0.17936599254608154
  0
3DFACE
  8
0
 10
-0.05083435773849487
 20
0.0465225875377655
 30
-0.3333483934402466
 11
0.009780347347259521
 21
0.09626767039299011
 31
-0.3333483934402466
 12
0.009780347347259521
 22
0.09626767039299011
 32
-0.17936599254608154
 13
-0.05083438754081726
 23
0.0465225875377655
 33
-0.17936599254608154
  0
3DFACE
  8
0
 10
0.5148507356643677
 20
0.04652222990989685
 30
-0.3333483934402466
 11
0.5645958185195923
 21
-0.014092430472373962
 31
-0.3333483934402466
 12
0.5645958185195923
 22
-0.014092415571212769
 32
-0.17936599254608154
 13
0.5148507356643677
 23
0.04652222990989685
 33
-0.17936599254608154
  0
3DFACE
  8
0
 10
-0.10057955980300903
 20
-0.01409199833869934
 30
-0.3333483934402466
 11
-0.05083435773849487
 21
0.0465225875377655
 31
-0.3333483934402466
 12
-0.05083438754081726
 22
0.0465225875377655
 32
-0.17936599254608154
 13
-0.10057958960533142
 23
-0.014091983437538147
 33
-0.17936599254608154
  0
3DFACE
  8
0
 10
0.5645958185195923
 20
-0.014092430472373962
 30
-0.3333483934402466
 11
0.6015597581863403
 21
-0.08324714004993439
 31
-0.3333483934402466
 12
0.6015597581863403
 22
-0.0832471251487732
 32
-0.17936599254608154
 13
0.5645958185195923
 23
-0.014092415571212769
 33
-0.17936599254608154
  0
3DFACE
  8
0
 10
-0.13754361867904663
 20
-0.08324670791625977
 30
-0.3333483934402466
 11
-0.10057955980300903
 21
-0.01409199833869934
 31
-0.3333483934402466
 12
-0.10057958960533142
 22
-0.014091983437538147
 32
-0.17936599254608154
 13
-0.13754361867904663
 23
-0.08324670791625977
 33
-0.17936599254608154
  0
3DFACE
  8
0
 10
0.6015597581863403
 20
-0.08324714004993439
 30
-0.3333483934402466
 11
0.6243220567703247
 21
-0.15828435122966766
 31
-0.3333483934402466
 12
0.6243220567703247
 22
-0.15828435122966766
 32
-0.17936599254608154
 13
0.6015597581863403
 23
-0.0832471251487732
 33
-0.17936599254608154
  0
3DFACE
  8
0
 10
-0.16030603647232056
 20
-0.15828394889831543
 30
-0.3333483934402466
 11
-0.13754361867904663
 21
-0.08324670791625977
 31
-0.3333483934402466
 12
-0.13754361867904663
 22
-0.08324670791625977
 32
-0.17936599254608154
 13
-0.16030603647232056
 23
-0.15828394889831543
 33
-0.17936599254608154
  0
3DFACE
  8
0
 10
0.6243220567703247
 20
-0.15828435122966766
 30
-0.3333483934402466
 11
0.6320079565048218
 21
-0.23632046580314636
 31
-0.3333483934402466
 12
0.6320079565048218
 22
-0.23632046580314636
 32
-0.17936599254608154
 13
0.6243220567703247
 23
-0.15828435122966766
 33
-0.17936599254608154
  0
3DFACE
  8
0
 10
-0.1679919958114624
 20
-0.2363201081752777
 30
-0.3333483934402466
 11
-0.16030603647232056
 21
-0.15828394889831543
 31
-0.3333483934402466
 12
-0.16030603647232056
 22
-0.15828394889831543
 32
-0.17936599254608154
 13
-0.1679919958114624
 23
-0.2363201081752777
 33
-0.17936599254608154
  0
3DFACE
  8
0
 10
0.6320079565048218
 20
-0.23632046580314636
 30
-0.3333483934402466
 11
0.6243221163749695
 21
-0.31435656547546387
 31
-0.3333483934402466
 12
0.6243221163749695
 22
-0.31435656547546387
 32
-0.17936599254608154
 13
0.6320079565048218
 23
-0.23632046580314636
 33
-0.17936599254608154
  0
3DFACE
  8
0
 10
-0.1603061556816101
 20
-0.31435626745224
 30
-0.3333483934402466
 11
-0.1679919958114624
 21
-0.2363201081752777
 31
-0.3333483934402466
 12
-0.1679919958114624
 22
-0.2363201081752777
 32
-0.17936599254608154
 13
-0.1603061556816101
 23
-0.31435626745224
 33
-0.17936599254608154
  0
3DFACE
  8
0
 10
0.6243221163749695
 20
-0.31435656547546387
 30
-0.3333483934402466
 11
0.6015598177909851
 21
-0.38939380645751953
 31
-0.3333483934402466
 12
0.6015598177909851
 22
-0.38939380645751953
 32
-0.17936599254608154
 13
0.6243221163749695
 23
-0.31435656547546387
 33
-0.17936599254608154
  0
3DFACE
  8
0
 10
-0.13754397630691528
 20
-0.38939356803894043
 30
-0.3333483934402466
 11
-0.1603061556816101
 21
-0.31435626745224
 31
-0.3333483934402466
 12
-0.1603061556816101
 22
-0.31435626745224
 32
-0.17936599254608154
 13
-0.13754397630691528
 23
-0.38939356803894043
 33
-0.17936599254608154
  0
3DFACE
  8
0
 10
0.6015598177909851
 20
-0.38939380645751953
 30
-0.3333483934402466
 11
0.5645958185195923
 21
-0.4585486054420471
 31
-0.3333483934402466
 12
0.5645958185195923
 22
-0.45854854583740234
 32
-0.17936599254608154
 13
0.6015598177909851
 23
-0.38939380645751953
 33
-0.17936599254608154
  0
3DFACE
  8
0
 10
-0.10058000683784485
 20
-0.458548367023468
 30
-0.3333483934402466
 11
-0.13754397630691528
 21
-0.38939356803894043
 31
-0.3333483934402466
 12
-0.13754397630691528
 22
-0.38939356803894043
 32
-0.17936599254608154
 13
-0.10058003664016724
 23
-0.458548367023468
 33
-0.17936599254608154
  0
3DFACE
  8
0
 10
0.5645958185195923
 20
-0.4585486054420471
 30
-0.3333483934402466
 11
0.5148507356643677
 21
-0.5191632509231567
 31
-0.3333483934402466
 12
0.5148507356643677
 22
-0.5191632509231567
 32
-0.17936599254608154
 13
0.5645958185195923
 23
-0.45854854583740234
 33
-0.17936599254608154
  0
3DFACE
  8
0
 10
-0.05083489418029785
 20
-0.5191630125045776
 30
-0.3333483934402466
 11
-0.10058000683784485
 21
-0.458548367023468
 31
-0.3333483934402466
 12
-0.10058003664016724
 22
-0.458548367023468
 32
-0.17936599254608154
 13
-0.05083489418029785
 23
-0.5191630125045776
 33
-0.17936599254608154
  0
3DFACE
  8
0
 10
0.5148507356643677
 20
-0.5191632509231567
 30
-0.3333483934402466
 11
0.45423609018325806
 21
-0.5689083337783813
 31
-0.3333483934402466
 12
0.45423606038093567
 22
-0.5689083337783813
 32
-0.17936599254608154
 13
0.5148507356643677
 23
-0.5191632509231567
 33
-0.17936599254608154
  0
3DFACE
  8
0
 10
0.009779706597328186
 20
-0.5689082145690918
 30
-0.3333483934402466
 11
-0.05083489418029785
 21
-0.5191630125045776
 31
-0.3333483934402466
 12
-0.05083489418029785
 22
-0.5191630125045776
 32
-0.17936599254608154
 13
0.009779706597328186
 23
-0.5689082145690918
 33
-0.17936599254608154
  0
3DFACE
  8
0
 10
0.45423609018325806
 20
-0.5689083337783813
 30
-0.3333483934402466
 11
0.38508132100105286
 21
-0.605872392654419
 31
-0.3333483934402466
 12
0.38508129119873047
 22
-0.605872392654419
 32
-0.17936599254608154
 13
0.45423606038093567
 23
-0.5689083337783813
 33
-0.17936599254608154
  0
3DFACE
  8
0
 10
0.078934445977211
 20
-0.6058722734451294
 30
-0.3333483934402466
 11
0.009779706597328186
 21
-0.5689082145690918
 31
-0.3333483934402466
 12
0.009779706597328186
 22
-0.5689082145690918
 32
-0.17936599254608154
 13
0.0789344310760498
 23
-0.6058722734451294
 33
-0.17936599254608154
  0
3DFACE
  8
0
 10
0.38508132100105286
 20
-0.605872392654419
 30
-0.3333483934402466
 11
0.3100440502166748
 21
-0.6286346316337585
 31
-0.3333483934402466
 12
0.3100440204143524
 22
-0.6286346316337585
 32
-0.17936599254608154
 13
0.38508129119873047
 23
-0.605872392654419
 33
-0.17936599254608154
  0
3DFACE
  8
0
 10
0.15397170186042786
 20
-0.6286345720291138
 30
-0.3333483934402466
 11
0.078934445977211
 21
-0.6058722734451294
 31
-0.3333483934402466
 12
0.0789344310760498
 22
-0.6058722734451294
 32
-0.17936599254608154
 13
0.15397170186042786
 23
-0.6286345720291138
 33
-0.17936599254608154
  0
3DFACE
  8
0
 10
0.3100440502166748
 20
-0.6286346316337585
 30
-0.3333483934402466
 11
0.23200786113739014
 21
-0.6363204717636108
 31
-0.3333483934402466
 12
0.23200786113739014
 22
-0.6363204717636108
 32
-0.17936599254608154
 13
0.3100440204143524
 23
-0.6286346316337585
 33
-0.17936599254608154
  0
3DFACE
  8
0
 10
0.23200786113739014
 20
-0.6363204717636108
 30
-0.3333483934402466
 11
0.15397170186042786
 21
-0.6286345720291138
 31
-0.3333483934402466
 12
0.15397170186042786
 22
-0.6286345720291138
 32
-0.17936599254608154
 13
0.23200786113739014
 23
-0.6363204717636108
 33
-0.17936599254608154
  0
ENDSEC
  0
EOF
